<?xml version="1.0" standalone="no"?>
<!DOCTYPE svg PUBLIC "-//W3C//DTD SVG 1.1//EN" "http://www.w3.org/Graphics/SVG/1.1/DTD/svg11.dtd">
<svg xmlns="http://www.w3.org/2000/svg">
<metadata>Copyright (C) 2015 by original authors @ fontello.com</metadata>
<defs>
<font id="minimal-icons" horiz-adv-x="1000" >
<font-face font-family="minimal-icons" font-weight="400" font-stretch="normal" units-per-em="1000" ascent="1000" descent="0" />
<missing-glyph horiz-adv-x="1000" />
<glyph glyph-name="truck" unicode="&#xe800;" d="m734 179c-86 0-156 71-156 157s70 157 156 157 157-71 157-157-71-157-157-157z m0 282c-69 0-125-56-125-125s56-125 125-125 125 56 125 125-56 125-125 125z m-484-282c-87 0-157 71-157 157s70 157 157 157c86 0 156-71 156-157s-70-157-156-157z m0 282c-69 0-126-56-126-125s57-125 126-125c69 0 125 56 125 125s-56 125-125 125z m256-93h-83v31h65l19 31h56v-31h-38l-19-31z m441 31h-38v31h25l34 36v90h-109v155h-81l-77-178-28 12 84 198h243l0-290-53-54z m-56 188h77v124h-77v-124z m-325-110l-3 0-461 75c-14 1-25 11-27 24l-75 166v4c0 15 13 28 28 28l680 47c0 0 0 0 0 0 9 0 16-4 21-9v9h229v-32l-220 0-145-288c-2-14-13-24-27-24z m-460 106l457-74 140 280-669-46 72-160z" horiz-adv-x="1000" />
<glyph glyph-name="database" unicode="&#xe801;" d="m500 984c-192 0-386-37-386-108h31c0 27 122 77 355 77 233 0 355-50 355-77v-31c0-25-125-72-355-72-233 0-355 46-355 72h-31c0-76 231-104 386-104 121 0 287 17 355 60v-191c0-33-138-79-355-79s-355 46-355 79v72h-31v-558c0-68 168-93 241-101 46-5 95-7 145-7 192 0 386 37 386 108v752c0 71-194 108-386 108z m355-860c0-27-122-77-355-77-49 0-97 2-142 7-147 15-213 50-213 70v185c63-44 210-66 355-66s292 22 355 66v-185z m0 234c0-34-138-84-355-84s-355 50-355 84v205c63-42 210-63 355-63s292 21 355 63v-205z" horiz-adv-x="1000" />
<glyph glyph-name="mining" unicode="&#xe802;" d="m83 9c-8 0-16 3-22 9l-43 43c-12 12-12 31 0 43l350 351 22-22-350-351 43-42 524 525 22-22-525-525c-6-6-14-9-21-9z m739 727l-22 22 11 11-43 42-10-11-22 22 11 11c12 12 31 12 43 0l43-43c12-12 12-31 0-43l-11-11z m-140-171l0 0c-8 0-14 3-19 8l-90 90c-11 11-10 29 2 41l97 97c11 11 31 12 41 2l90-90c5-5 7-12 8-19 0-8-4-16-10-22l-97-97c-6-6-14-10-22-10z m-85 118l85-85 96 95-85 85-96-95z m339-520l-11 6-11 7 5 13c24 67-47 202-185 353l23 21c142-156 186-258 195-320 29 89-25 232-145 373l24 20c159-187 205-373 114-464l-9-9z m-394 571c-233 213-335 191-353 185-12-5-18 3-20 6l3 20c91 91 277 45 464-114l-20-24c-141 120-284 174-373 145 62-9 164-53 320-195l-21-23z" horiz-adv-x="1000" />
<glyph glyph-name="check" unicode="&#xe803;" d="m393 85c-8 0-16 3-22 9l-354 355c-13 12-13 32 0 44l98 99 22-22-98-99 354-354 568 567-199 200-369-369-155 155-10-10-22 22 10 10c6 6 13 9 22 9 0 0 0 0 0 0 8 0 16-3 22-9l133-133 347 347c12 12 32 12 44 0l200-200c5-5 9-13 9-22 0-8-4-16-9-22l-569-568c-6-6-14-9-22-9z" horiz-adv-x="1000" />
<glyph glyph-name="cancel" unicode="&#xe804;" d="m268 15c-8 0-16 3-22 9l-222 222c-12 12-12 32 0 44l211 210-211 210c-6 6-9 14-9 22s3 17 9 22l112 112 22-22-112-112 233-232-233-232 222-222 232 233 232-233 222 222-233 232 233 232-222 222-232-233-232 233-10-10-22 22 10 10c12 12 32 12 44 0l210-210 210 210c6 6 14 9 22 9 0 0 0 0 0 0 9 0 17-3 22-9l222-222c6-5 9-13 9-22 0-8-3-16-9-22l-210-210 210-210c12-12 12-32 0-44l-222-222c-12-12-32-12-44 0l-210 211-210-211c-6-6-14-9-22-9z" horiz-adv-x="1000" />
<glyph glyph-name="loader" unicode="&#xe805;" d="m500 16c-267 0-484 217-484 484 0 103 32 202 92 285l25-19c-56-77-86-170-86-266 0-250 203-453 453-453 250 0 453 203 453 453s-203 453-453 453c-79 0-156-20-224-59l-16 27c73 41 156 63 240 63 267 0 484-217 484-484s-217-484-484-484z" horiz-adv-x="1000" />
<glyph glyph-name="check-o" unicode="&#xe806;" d="m487 419l214 213 22-22-235-235-11 11-1-1-128 129 22 22 117-117z m477 222l-30-9c13-43 19-87 19-132 0-250-203-453-453-453s-453 203-453 453 203 453 453 453c50 0 99-8 146-24l10 30c-50 17-102 25-156 25-267 0-484-217-484-484s217-484 484-484 484 217 484 484c0 48-7 95-20 141z" horiz-adv-x="1000" />
<glyph glyph-name="cancel-o" unicode="&#xe807;" d="m662 640l-140-140 140-140-22-22-140 140-140-140-22 22 140 140-140 140 22 22 140-140 140 140 22-22z m302 1l-30-9c13-43 19-87 19-132 0-250-203-453-453-453-250 0-453 203-453 453 0 250 203 453 453 453 50 0 99-8 146-24l10 30c-50 17-103 25-156 25-267 0-484-217-484-484 0-267 217-484 484-484 267 0 484 217 484 484 0 48-7 95-20 141z" horiz-adv-x="1000" />
<glyph glyph-name="warning-o" unicode="&#xe808;" d="m984 500c0-267-217-484-484-484-267 0-484 217-484 484 0 103 32 202 92 285l25-19c-56-77-86-170-86-266 0-250 203-453 453-453s453 203 453 453-203 453-453 453c-79 0-156-20-224-59l-16 27c73 42 156 63 240 63 267 0 484-217 484-484z m-420 200l0 9c0 36-29 65-64 65-35 0-63-29-63-65 0-2 0-7-1-13l32 0c0 6 0 11 0 13 0 19 14 34 32 34 18 0 32-15 32-34l0-10c4-281-32-295-32-295 0 0-25 9-31 175l-31-1c6-181 35-205 62-205 6 0 15 2 24 10 29 30 42 133 40 317z m-64-378c35 0 64-29 64-64 0-35-29-64-64-64-35 0-63 29-63 64 0 35 28 64 63 64z m0-31c-18 0-32-15-32-33 0-18 14-33 32-33 18 0 32 15 32 33s-14 33-32 33z" horiz-adv-x="1000" />
<glyph glyph-name="network" unicode="&#xe809;" d="m501 224c-63 0-124 23-172 64l19 22c43-36 97-56 153-56 124 0 227 97 235 221l29-2c-9-139-125-249-264-249z m-249 175c-11 29-16 60-16 91 0 147 119 266 265 266 104 0 199-62 242-158l-27-12c-38 85-122 140-215 140-130 0-236-106-236-236 0-28 5-55 14-81l-27-10z m-120-96c-51 0-86 12-97 38-22 52 61 123 135 174l17-24c-98-67-134-118-125-139 17-40 208-25 479 91 120 51 227 110 303 167 80 60 101 100 94 116-10 23-85 32-227-4l-7 29c86 21 235 48 261-13 16-38-19-89-104-152-77-58-187-118-308-170-152-65-318-113-421-113z" horiz-adv-x="1000" />
<glyph glyph-name="block" unicode="&#xe80a;" d="m1000 779l-16-5-484 140-484-140-16 5v-68h31v26l453-131v-483l-453 131v332h-31v-355l484-141v-9l16 5 16-5v9l484 141v548z m-928-21l428 124 428-124-428-124-428 124z m897-504l-453-131v483l453 131v-483z" horiz-adv-x="1000" />
<glyph glyph-name="bulb" unicode="&#xe80b;" d="m378 219c-12 22-4 37 1 45 4 6 4 7 1 14-27 47-59 84-89 120-36 42-69 81-90 131-12 28-18 56-21 87-1 14-2 28-3 41-1 10-1 20-1 29 0 11 1 24 3 38 18 128 120 231 255 257 22 2 43 3 65 3 22 0 44-1 64-3v0l3 0c150-29 258-153 258-295 0-37-7-85-20-140-23-68-59-110-98-154-28-33-58-67-84-114-4-7-4-8 0-14 5-8 13-22 2-45l-28 15c4 7 3 8-1 14-5 9-13 23-1 45 28 50 59 85 89 119 38 44 71 82 91 143 12 50 19 97 19 131 0 127-97 238-232 264l0 0c-40 4-83 4-123 0-120-23-212-116-228-230-2-13-3-24-3-34 0-8 1-17 1-27 1-14 2-27 3-41 2-27 9-52 19-77 19-45 51-83 84-123 32-36 64-75 93-125 12-22 4-36-1-44-3-7-4-8 0-15l-28-15z m68-203c-25 0-49 7-55 44l30 5c4-18 9-20 47-17 19 2 45 2 64 0 38-3 43-1 46 17l31-5c-8-49-48-46-79-43-20 2-41 2-60 0-7 0-16-1-24-1z m-68 111h242v-31h-242v31z m0 62h242v-31h-242v31z m184 154h-32c0 55 4 103 12 143-16 3-30 8-43 16-12-7-25-13-40-15 7-40 11-87 11-142h-31c0 62-5 107-12 141-50 5-97 35-97 90 0 24 18 43 41 43 13 0 44-6 68-63 5-11 10-24 13-39 8 1 16 4 22 7-15 18-24 41-24 65 0 36 21 62 50 62 29 0 51-26 51-61 0-24-10-48-26-66 7-4 15-6 24-7 3 14 8 27 13 39 25 58 56 64 68 64 23 0 40-18 40-42 0-55-46-86-96-92-7-34-12-80-12-143z m-191 245c-7 0-10-6-10-12 0-32 27-51 58-57-2 10-6 18-8 25-14 32-30 44-40 44z m259 1c-9 0-25-12-39-45-3-7-6-15-9-25 31 7 56 27 56 59 0 2 0 11-8 11z m-130 31c-13 0-19-16-19-31 0-18 7-34 19-47 12 13 19 30 19 48 0 15-6 30-19 30z" horiz-adv-x="1000" />
<glyph glyph-name="node" unicode="&#xe80c;" d="m228 516h529v-31h-529v31z m-30-138h589c26 0 46 21 46 46h-31c0-8-7-15-15-15h-589c-8 0-15 7-15 15v409c0 8 7 14 15 14h589c8 0 15-6 15-14v-197h31v197c0 25-20 46-46 46h-589c-26 0-46-21-46-46v-409c0-25 20-46 46-46z m318-30h-31v-74h-61v-153h152v153h-60v74z m29-195h-90v89h90v-89z m-514 60h363v-31h-363v31z m575 0h363v-31h-363v31z" horiz-adv-x="1000" />
<glyph glyph-name="laptop" unicode="&#xe80d;" d="m893 396c-1 16-9 30-22 39 6 8 9 18 9 29v400c0 29-22 52-49 52h-659c-27 0-49-23-49-52v-38h31v38c0 11 8 21 18 21h659c10 0 18-10 18-21v-400c0-11-8-21-18-21h-659c-10 0-18 10-18 21v244h-31v-244c0-10 3-19 7-27-14-8-24-23-25-41l-89-259v-3c0-27 22-50 49-50h870c27 0 49 23 49 50v3l-91 259z m42-281h-870c-9 0-17 8-18 17l89 259v2c0 11 8 19 18 19h18 659 13c10 0 18-8 18-19v-2l91-259c-1-9-9-17-18-17z m-193 269h-489c-20 0-36-15-38-35l-41-134-1-4c0-21 17-38 38-38h574c20 0 37 17 37 38l-43 138c-2 20-18 35-37 35z m31-119h-39l-9 28h32v22l16-50z m-469 28h48l-7-28h-50l9 28z m-42-28h-40l9 28h40l-9-28z m342 59h-49v29h42l7-29z m25 29h43l9-29h-45l-7 29z m5-147h-271l7 28h257l7-28z m-168 59v28h58v-28h-58z m-32 0h-57l7 28h50v-28z m121 0v28h57l7-28h-64z m-31 59h-58v29h58v-29z m-90 0h-42l7 29h35v-29z m-74 0h-45l9 29h43l-7-29z m-23-90l-7-30h-55l10 30h52z m322 0h53l9-30h-55l-7 30z m-8 31l0 0-7 28h48l9-28h-50z m97 81l7-22h-41l-9 29h37c3 0 6-3 6-7z m-501 0c0 4 2 7 6 7h38l-9-29h-42l6 18 1 4z m-42-137l8 25h39l-10-30h-31c-3 0-5 2-6 5z m580-5h-31l-10 30h39l8-25c-1-3-3-5-6-5z m38 415v193c0 25-20 46-45 46h-550c-25 0-46-21-46-46v-296c0-25 21-45 46-45h550c25 0 45 20 45 45v29h-31v-29c0-8-7-14-14-14h-550c-8 0-14 6-14 14v296c0 8 6 14 14 14h550c7 0 14-6 14-14v-193l31 0 0 0z m-405 72l-124-107 20-23 109 93 135-55 152 124-20 24-137-112-135 56z" horiz-adv-x="1000" />
<glyph glyph-name="time" unicode="&#xe80e;" d="m823 968h-646v-30h52c-14-76-42-354 266-452 300-96 257-367 244-425h-479c-6 33-23 137 19 236l-28 12c-43-103-30-206-22-248h-52v-30h646v30h-54c14 75 45 355-265 454-297 94-257 363-244 423h479c12-57 50-305-206-409l12-28c264 108 238 364 225 437h53v30z" horiz-adv-x="1000" />
<glyph glyph-name="clock" unicode="&#xe80f;" d="m501 484h-307v31h291v161h32v-180l-6-12-10 0z m483 16c0 267-217 484-484 484-39 0-78-4-116-14l8-30c35 9 71 13 108 13 250 0 453-203 453-453s-203-453-453-453-453 203-453 453c0 53 9 106 27 155l-29 11c-20-53-29-109-29-166 0-267 217-484 484-484 267 0 484 217 484 484z m-53 401c-2 21-12 40-28 54-17 14-37 21-58 19-21-1-40-11-54-27l24-20c8 10 19 15 32 16 13 1 25-3 36-12 10-8 16-20 17-33 1-12-2-24-10-34l23-20c14 16 20 36 18 57z m-415 31h-31v-61h31v61z m0-806h-31v-61h31v61z m418 388h-61v-31h61v31z m-806 0h-61v-31h61v31z" horiz-adv-x="1000" />
<glyph glyph-name="group" unicode="&#xe810;" d="m500 429c-58 0-105 48-105 106 0 59 47 107 105 107 58 0 106-48 106-107 0-58-48-106-106-106z m0 181c-40 0-74-33-74-75s34-75 74-75c41 0 74 34 74 75s-33 75-74 75z m243-356h-31c0 63-97 115-211 115-115 0-212-52-212-115h-31c0 82 107 147 243 147 136 0 242-65 242-147z m-544 327c-50 0-91 41-91 90 0 50 41 91 91 91 50 0 91-41 91-91 0-49-41-90-91-90z m0 149c-33 0-60-26-60-59 0-32 27-59 60-59 33 0 60 27 60 59 0 33-27 59-60 59z m181-309h-32c0 57-63 99-150 99-88 0-151-42-151-99h-31c0 75 76 130 182 130 105 0 182-55 182-130z m422 158c-50 0-90 41-90 91 0 50 40 91 90 91s91-41 91-91c0-50-41-91-91-91z m0 151c-32 0-59-27-59-60 0-33 27-59 59-59s60 26 60 59c0 33-27 60-60 60z m182-309h-31c0 58-63 100-150 100-88 0-151-42-151-100h-31c0 76 76 131 182 131 105 0 181-55 181-131z" horiz-adv-x="1000" />
<glyph glyph-name="gas" unicode="&#xe811;" d="m500 16c-267 0-484 217-484 484 0 103 32 202 93 285l25-19c-57-77-86-169-86-266 0-250 203-453 452-453 250 0 452 203 452 453 0 250-202 453-452 453-79 0-156-20-224-59l-15 27c72 41 155 63 239 63 267 0 484-217 484-484 0-267-217-484-484-484z m280 453l-13 28 66 28c-6 179-153 322-333 322-183 0-333-149-333-332h-31c0 201 163 364 364 364 201 0 364-163 364-364v-10l-84-36z m-280-270v31c25 0 45 20 45 44 0 44-24 259-45 309-21-50-45-265-45-309h-31c0 18 7 102 18 181 21 154 40 167 58 167 19 0 37-13 58-167 11-79 18-163 18-181 0-41-34-75-76-75z" horiz-adv-x="1000" />
<glyph glyph-name="difficulty" unicode="&#xe812;" d="m498 21c-9 0-17 3-23 9l-450 450c-12 13-12 33 0 45l140 140c-23 6-43 17-60 34-24 24-38 57-38 92s14 67 38 92c25 25 57 38 92 38s68-13 92-38c25-25 39-58 38-93l-31 0c0 27-10 52-29 71-19 19-43 29-70 29-26 0-51-11-70-29-18-19-29-44-29-70 0-26 11-51 29-70 19-19 45-30 71-29l39 0-190-189 450-451 452 450-140 141c-6-23-17-43-34-60-25-24-57-38-92-38s-67 14-92 38c-25 25-38 57-38 92 0 35 13 68 38 92 17 17 37 29 60 34l-153 152-30-29-22 22 29 29c13 13 33 13 46 0l201-201-38 0c-27 1-52-10-71-29-19-19-29-43-29-70s10-51 29-70c19-18 44-29 70-29s51 11 70 29c19 19 29 44 29 71l-1 39 190-190c6-6 9-14 9-22s-3-17-9-23l-450-450c-6-6-15-9-23-9z" horiz-adv-x="1000" />
<glyph glyph-name="uncle" unicode="&#xe813;" d="m659 0c-125 0-228 102-228 228 0 41 11 81 32 116l-75 75c-28-17-60-25-92-25-101 0-182 81-182 182s81 182 182 182v-31c-84 0-151-68-151-151s68-151 151-151c30 0 60 9 85 27l11 7 111-111-7-11c-22-32-33-70-33-109 0-109 88-197 196-197s196 88 196 197-88 196-196 196c-46 0-90-16-125-45l-11-9-110 110 7 10c17 26 27 55 27 86 0 27-8 53-22 77l-6 10 128 129 11-6c15-9 31-13 48-13 54 0 98 44 98 98s-44 98-98 98c-16 0-32-4-46-11-32-18-52-51-52-87 0-17 5-34 13-48l6-11-117-117-22 22 100 101c-7 17-11 35-11 53 0 48 26 92 69 114 18 10 39 15 60 15 71 0 129-58 129-129 0-71-58-129-129-129-18 0-36 4-53 11l-95-95c13-26 20-54 20-82 0-33-9-64-25-92l72-72c39 28 86 43 134 43 125 0 228-102 228-227s-103-228-228-228z" horiz-adv-x="1000" />
<glyph glyph-name="hashrate" unicode="&#xe814;" d="m367 39c-163 37-286 115-340 215-31 57-35 117-13 175l7 20 17-13c80-62 99-64 103-63 4 8-2 42-7 70-8 49-19 110-10 170 17 110 96 175 235 195l24 3-7-23c-15-52-8-91 19-109 31-21 85-11 127 23 67 53 85 142 48 239l-15 38 36-19c271-138 195-309 158-391-7-17-16-37-15-43 3-5 32-40 69-37 39 2 78 46 113 126l12 30 16-28c63-115 73-229 30-331-49-114-161-203-307-242l-8 30c137 37 241 119 286 225 36 84 31 178-14 274-37-74-80-113-128-115-54-3-92 45-97 54-9 16 1 37 15 69 35 81 94 213-110 333 24-95-1-182-69-236-54-43-121-54-164-25-21 14-51 47-37 120-111-21-172-75-186-164-8-55 2-114 10-161 7-44 12-73 2-91-4-8-11-13-20-14-17-4-43 5-111 55-10-43-4-87 19-129 48-91 167-165 319-200l-7-30z" horiz-adv-x="1000" />
<glyph glyph-name="gasprice" unicode="&#xe815;" d="m430 1c-8 0-16 3-22 9l-398 398c-12 12-12 32 0 44l345 345 22-22-345-345 398-398 494 494c3 17 11 90 18 161 8 75 17 160 25 222l-58 58c-62-8-146-17-221-24-71-8-145-16-162-19l-8-9-23 22 12 12c6 6 7 7 178 25 77 8 165 17 228 25l8 1 79-79-1-8c-8-63-17-151-26-229-17-170-18-171-24-177l-497-497c-6-6-14-9-22-9z m420 771c-21 0-41 8-55 23-15 14-23 34-23 55 0 21 8 40 23 55s34 23 55 23c21 0 40-8 55-23l-22-22c-18 18-49 18-66 0-9-9-14-21-14-33 0-13 5-24 14-33 17-18 48-18 66 0l22-22c-15-15-34-23-55-23z m-430-565l-22 22 177 177c-73-16-121 29-121 30l21 22-10-11 10 11c4-3 80-72 188 36l0 0 23-22-266-265z" horiz-adv-x="1000" />
</font>
</defs>
</svg>
