<?xml version="1.0" encoding="UTF-8" standalone="no"?>
<svg
   xmlns:dc="http://purl.org/dc/elements/1.1/"
   xmlns:cc="http://creativecommons.org/ns#"
   xmlns:rdf="http://www.w3.org/1999/02/22-rdf-syntax-ns#"
   xmlns:svg="http://www.w3.org/2000/svg"
   xmlns="http://www.w3.org/2000/svg"
   xmlns:sodipodi="http://sodipodi.sourceforge.net/DTD/sodipodi-0.dtd"
   xmlns:inkscape="http://www.inkscape.org/namespaces/inkscape"
   viewBox="0 0 408.14071 50.400002"
   version="1.1"
   id="svg1038"
   sodipodi:docname="kowala-zygote-testnet.svg"
   width="408.14072"
   height="50.400002"
   inkscape:version="0.92.2 2405546, 2018-03-11">
  <metadata
     id="metadata1042">
    <rdf:RDF>
      <cc:Work
         rdf:about="">
        <dc:format>image/svg+xml</dc:format>
        <dc:type
           rdf:resource="http://purl.org/dc/dcmitype/StillImage" />
        <dc:title>kowala-zygote-testnet</dc:title>
      </cc:Work>
    </rdf:RDF>
  </metadata>
  <sodipodi:namedview
     pagecolor="#ffffff"
     bordercolor="#666666"
     borderopacity="1"
     objecttolerance="10"
     gridtolerance="10"
     guidetolerance="10"
     inkscape:pageopacity="0"
     inkscape:pageshadow="2"
     inkscape:window-width="3840"
     inkscape:window-height="2075"
     id="namedview1040"
     showgrid="false"
     fit-margin-top="0"
     fit-margin-left="0"
     fit-margin-right="0"
     fit-margin-bottom="0"
     inkscape:zoom="3.9391125"
     inkscape:cx="264.89846"
     inkscape:cy="134.64039"
     inkscape:window-x="7680"
     inkscape:window-y="2196"
     inkscape:window-maximized="0"
     inkscape:current-layer="svg1038" />
  <defs
     id="defs1010">
    <style
       id="style1008">.cls-1,.cls-2{fill:#fff;}.cls-2{font-size:25.29px;font-family:Poppins-ExtraLight, Poppins;}</style>
  </defs>
  <title
     id="title1012">kowala-zygote-testnet</title>
  <g
     id="Layer_2"
     data-name="Layer 2"
     style="fill:#ffffff"
     transform="translate(0,-0.01)">
    <g
       id="Layer_1-2"
       data-name="Layer 1"
       style="fill:#ffffff">
      <path
         class="cls-1"
         d="m 25.2,50.41 a 25.2,25.2 0 1 1 25.2,-25.2 25.23,25.23 0 0 1 -25.2,25.2 z m 0,-46.9 A 21.7,21.7 0 1 0 46.9,25.2 21.72,21.72 0 0 0 25.2,3.51 Z"
         id="path1014"
         style="fill:#ffffff"
         inkscape:connector-curvature="0" />
      <rect
         class="cls-1"
         x="15.74"
         y="3.6800001"
         width="3.6500001"
         height="43.740002"
         id="rect1016"
         style="fill:#ffffff" />
      <rect
         class="cls-1"
         x="-2.8299999"
         y="16.68"
         width="43.41"
         height="3.51"
         transform="rotate(-45.27,18.877163,18.428308)"
         id="rect1018"
         style="fill:#ffffff" />
      <rect
         class="cls-1"
         x="23.200001"
         y="2.3900001"
         width="3.51"
         height="47.060001"
         transform="rotate(-45,24.945304,25.917317)"
         id="rect1020"
         style="fill:#ffffff" />
      <path
         class="cls-1"
         d="m 72.95,25.65 8,9.6 h -4.58 l -7,-8.63 v 8.63 H 65.62 V 16.38 h 3.77 v 8.47 l 7,-8.47 h 4.54 z"
         id="path1022"
         style="fill:#ffffff"
         inkscape:connector-curvature="0" />
      <path
         class="cls-1"
         d="m 100.42,17.34 a 8.93,8.93 0 0 1 3.39,3.43 10,10 0 0 1 1.24,5 10,10 0 0 1 -1.24,5 8.9,8.9 0 0 1 -3.39,3.45 10,10 0 0 1 -9.6,0 8.89,8.89 0 0 1 -3.39,-3.45 10,10 0 0 1 -1.24,-5 10,10 0 0 1 1.24,-5 8.92,8.92 0 0 1 3.39,-3.43 10,10 0 0 1 9.6,0 z m -7.71,3 a 5.11,5.11 0 0 0 -2,2.15 7.17,7.17 0 0 0 -0.71,3.27 7.17,7.17 0 0 0 0.74,3.24 5.11,5.11 0 0 0 2,2.15 6,6 0 0 0 5.83,0 5.12,5.12 0 0 0 2,-2.15 7.18,7.18 0 0 0 0.71,-3.28 7.18,7.18 0 0 0 -0.71,-3.27 5.12,5.12 0 0 0 -2,-2.15 6,6 0 0 0 -5.83,0 z"
         id="path1024"
         style="fill:#ffffff"
         inkscape:connector-curvature="0" />
      <path
         class="cls-1"
         d="m 136.38,16.38 -4.62,18.87 h -4.65 L 123.58,21.56 120,35.25 h -4.6 l -4.62,-18.87 h 4.09 l 2.88,14.62 3.74,-14.62 h 4.14 L 129.41,31 132.3,16.38 Z"
         id="path1026"
         style="fill:#ffffff"
         inkscape:connector-curvature="0" />
      <path
         class="cls-1"
         d="m 154.19,31.45 h -7.56 l -1.34,3.8 h -4 l 7,-18.66 h 4.3 l 6.92,18.66 h -4 z m -1,-2.86 -2.78,-8 -2.78,8 z"
         id="path1028"
         style="fill:#ffffff"
         inkscape:connector-curvature="0" />
      <path
         class="cls-1"
         d="m 169,32.36 h 6.34 v 2.89 H 165.25 V 16.38 H 169 Z"
         id="path1030"
         style="fill:#ffffff"
         inkscape:connector-curvature="0" />
      <path
         class="cls-1"
         d="m 192.84,31.45 h -7.57 l -1.34,3.8 h -4 l 7,-18.66 h 4.3 l 6.92,18.66 h -4 z m -1,-2.86 -2.78,-8 -2.78,8 z"
         id="path1032"
         style="fill:#ffffff"
         inkscape:connector-curvature="0" />
      <text
         class="cls-2"
         transform="translate(207.87,35.25)"
         id="text1034"
         style="font-size:25.29000092px;font-family:Poppins-ExtraLight, Poppins;fill:#ffffff">ZYGOTE TESTNET</text>
    </g>
  </g>
</svg>
