<svg xmlns="http://www.w3.org/2000/svg" viewBox="0 0 398.44 50.41"><defs><style>.cls-1,.cls-2{fill:#fff;}.cls-2{font-size:25.29px;font-family:Poppins-ExtraLight, Poppins;}</style></defs><title>kowala-zygote-testnet</title><g id="Layer_2" data-name="Layer 2"><g id="Layer_1-2" data-name="Layer 1"><path class="cls-1" d="M25.2,50.41a25.2,25.2,0,1,1,25.2-25.2A25.23,25.23,0,0,1,25.2,50.41Zm0-46.9A21.7,21.7,0,1,0,46.9,25.2,21.72,21.72,0,0,0,25.2,3.51Z"/><rect class="cls-1" x="15.74" y="3.68" width="3.65" height="43.74"/><rect class="cls-1" x="-2.83" y="16.68" width="43.41" height="3.51" transform="translate(-7.5 18.87) rotate(-45.27)"/><rect class="cls-1" x="23.2" y="2.39" width="3.51" height="47.06" transform="translate(-11.02 25.23) rotate(-45)"/><path class="cls-1" d="M72.95,25.65l8,9.6H76.37l-7-8.63v8.63H65.62V16.38h3.77v8.47l7-8.47h4.54Z"/><path class="cls-1" d="M100.42,17.34a8.93,8.93,0,0,1,3.39,3.43,10,10,0,0,1,1.24,5,10,10,0,0,1-1.24,5,8.9,8.9,0,0,1-3.39,3.45,10,10,0,0,1-9.6,0,8.89,8.89,0,0,1-3.39-3.45,10,10,0,0,1-1.24-5,10,10,0,0,1,1.24-5,8.92,8.92,0,0,1,3.39-3.43,10,10,0,0,1,9.6,0Zm-7.71,3a5.11,5.11,0,0,0-2,2.15A7.17,7.17,0,0,0,90,25.76,7.17,7.17,0,0,0,90.74,29a5.11,5.11,0,0,0,2,2.15,6,6,0,0,0,5.83,0,5.12,5.12,0,0,0,2-2.15,7.18,7.18,0,0,0,.71-3.28,7.18,7.18,0,0,0-.71-3.27,5.12,5.12,0,0,0-2-2.15,6,6,0,0,0-5.83,0Z"/><path class="cls-1" d="M136.38,16.38l-4.62,18.87h-4.65l-3.53-13.69L120,35.25H115.4l-4.62-18.87h4.09L117.75,31l3.74-14.62h4.14L129.41,31l2.89-14.62Z"/><path class="cls-1" d="M154.19,31.45h-7.56l-1.34,3.8h-4l7-18.66h4.3l6.92,18.66h-4Zm-1-2.86-2.78-8-2.78,8Z"/><path class="cls-1" d="M169,32.36h6.34v2.89H165.25V16.38H169Z"/><path class="cls-1" d="M192.84,31.45h-7.57l-1.34,3.8h-4l7-18.66h4.3l6.92,18.66h-4Zm-1-2.86-2.78-8-2.78,8Z"/><text class="cls-2" transform="translate(207.87 35.25)">ZYGOTE TESTNET</text></g></g></svg>