<svg xmlns="http://www.w3.org/2000/svg" xmlns:xlink="http://www.w3.org/1999/xlink" version="1.1" x="0px" y="0px" viewBox="0 0 100 100" enable-background="new 0 0 100 100" xml:space="preserve"><g display="none"><path display="inline" fill="#000000" d="M14.645,85.355c-8.592-8.592-8.592-22.521,0-31.113l14.85-14.85   c0.901-0.901,1.873-1.686,2.88-2.398c-1.628,4.587-1.826,9.563-0.584,14.244L21.716,61.313c-4.679,4.679-4.68,12.292,0,16.97   c4.679,4.68,12.292,4.68,16.971,0l14.849-14.849c4.679-4.679,4.68-12.292,0-16.971c-2.307-2.306-5.325-3.47-8.354-3.503   c0.388-1.826,1.282-3.566,2.698-4.982l3.945-3.945c3.209,1.037,6.233,2.811,8.782,5.359c8.592,8.592,8.592,22.521,0,31.113   l-14.85,14.85C37.166,93.947,23.236,93.947,14.645,85.355z M52.121,62.021c1.416-1.416,2.311-3.155,2.698-4.982   c-3.029-0.032-6.049-1.196-8.354-3.503c-4.68-4.68-4.679-12.292,0-16.971l14.849-14.85c4.679-4.678,12.292-4.679,16.971,0   c4.679,4.68,4.679,12.293,0,16.971L68.223,48.747c1.245,4.685,1.058,9.673-0.571,14.263c1.001-0.71,1.958-1.508,2.854-2.404   l14.85-14.849c8.592-8.591,8.592-22.521,0-31.112s-22.521-8.592-31.113,0l-14.849,14.85c-8.592,8.591-8.592,22.521,0,31.111   c2.547,2.549,5.564,4.334,8.772,5.37L52.121,62.021z"></path></g><g><path d="M14.645,85.355c-8.592-8.592-8.592-22.521,0-31.113l14.85-14.85c0.901-0.901,1.873-1.686,2.88-2.398   c-1.628,4.587-1.826,9.563-0.584,14.244L21.716,61.313c-4.679,4.679-4.68,12.292,0,16.97c4.679,4.68,12.292,4.68,16.971,0   l14.849-14.849c4.679-4.679,4.68-12.292,0-16.971c-2.307-2.306-5.325-3.47-8.354-3.503c0.388-1.826,1.282-3.566,2.698-4.982   l3.945-3.945c3.209,1.037,6.233,2.811,8.782,5.359c8.592,8.592,8.592,22.521,0,31.113l-14.85,14.85   C37.166,93.947,23.236,93.947,14.645,85.355z M52.121,62.021c1.416-1.416,2.311-3.155,2.698-4.982   c-3.029-0.032-6.049-1.196-8.354-3.503c-4.68-4.68-4.679-12.292,0-16.971l14.849-14.85c4.679-4.678,12.292-4.679,16.971,0   c4.679,4.68,4.679,12.293,0,16.971L68.223,48.747c1.245,4.685,1.058,9.673-0.571,14.263c1.001-0.71,1.958-1.508,2.854-2.404   l14.85-14.849c8.592-8.591,8.592-22.521,0-31.112s-22.521-8.592-31.113,0l-14.849,14.85c-8.592,8.591-8.592,22.521,0,31.111   c2.547,2.549,5.564,4.334,8.772,5.37L52.121,62.021z"></path></g><g display="none"><path display="inline" fill="#000000" stroke="#E00C02" stroke-width="4" stroke-miterlimit="10" d="M56.749,62.902   c-5.019-0.079-10.013-2.023-13.82-5.831l0,0c-7.778-7.778-7.778-20.506,0-28.285l14.143-14.142c7.778-7.778,20.506-7.778,28.284,0   l0,0c7.778,7.778,7.778,20.506,0,28.284L71.213,57.071c-1.064,1.064-2.222,1.984-3.446,2.757"></path><path display="inline" fill="#000000" stroke="#E00C02" stroke-width="4" stroke-miterlimit="10" d="M43.251,37.098   c5.019,0.08,10.013,2.023,13.82,5.831l0,0c7.778,7.778,7.778,20.506,0,28.285L42.929,85.355c-7.778,7.778-20.506,7.778-28.284,0   l0,0c-7.778-7.778-7.778-20.506,0-28.284l14.143-14.143c1.064-1.064,2.222-1.984,3.447-2.758"></path></g><g display="none"><path display="inline" d="M56.718,64.901c-5.758-0.09-11.156-2.369-15.203-6.416c-4.14-4.14-6.42-9.664-6.42-15.557   c0-5.892,2.28-11.417,6.42-15.556L55.657,13.23c4.14-4.14,9.664-6.42,15.556-6.42c5.893,0,11.417,2.28,15.557,6.42   s6.42,9.664,6.42,15.556s-2.28,11.417-6.42,15.556L72.627,58.485c-1.151,1.151-2.427,2.172-3.793,3.034l-2.135-3.383   c1.115-0.704,2.158-1.538,3.1-2.479l14.143-14.143c3.384-3.384,5.248-7.904,5.248-12.728c0-4.823-1.864-9.344-5.248-12.728   c-3.385-3.384-7.904-5.248-12.729-5.248c-4.823,0-9.343,1.864-12.728,5.248L44.343,30.201c-7.019,7.019-7.019,18.438,0,25.457   c3.309,3.308,7.726,5.17,12.438,5.245L56.718,64.901z M44.343,86.77l14.143-14.142c8.578-8.578,8.578-22.535,0-31.113   c-4.046-4.047-9.445-6.325-15.203-6.417l-0.063,3.999c4.712,0.075,9.13,1.938,12.438,5.246c7.019,7.019,7.019,18.438,0,25.457   L41.515,83.941c-7.018,7.018-18.437,7.019-25.456,0c-3.384-3.384-5.248-7.905-5.248-12.728c0-4.824,1.864-9.344,5.248-12.728   l14.143-14.143c0.942-0.942,1.986-1.777,3.101-2.48l-2.135-3.383c-1.365,0.862-2.642,1.883-3.794,3.035L13.23,55.657   c-4.14,4.139-6.42,9.664-6.42,15.556s2.28,11.417,6.42,15.556c4.289,4.289,9.923,6.433,15.556,6.433   C34.42,93.203,40.054,91.058,44.343,86.77z"></path></g></svg>