<?xml version="1.0" encoding="UTF-8"?>
<svg version="1.1" viewBox="0 0 820.47 783.14" xml:space="preserve" xmlns="http://www.w3.org/2000/svg" xmlns:cc="http://creativecommons.org/ns#" xmlns:dc="http://purl.org/dc/elements/1.1/" xmlns:rdf="http://www.w3.org/1999/02/22-rdf-syntax-ns#"><metadata><rdf:RDF><cc:Work rdf:about=""><dc:format>image/svg+xml</dc:format><dc:type rdf:resource="http://purl.org/dc/dcmitype/StillImage"/><dc:title/></cc:Work></rdf:RDF></metadata><style type="text/css">
	.st0{fill:none;stroke:#3CC3DB;stroke-width:12.5785;stroke-linejoin:round;stroke-miterlimit:10;}
	.st1{fill:#3CC3DB;}
	.st2{fill:#006373;}
	.st3{fill:#006C77;}
	.st4{fill:#00555E;}
	.st5{fill:#014C64;}
	.st6{fill:#0297AF;}
	.st7{fill:#00A5BF;}
	.st8{fill:#007E92;}
	.st9{fill:#37B2C8;}
	.st10{fill:#2C94A6;}
	.st11{fill:#32A3B8;}
	.st12{fill:#4CC4D4;}
	.st13{fill:none;stroke:#3CC3DB;stroke-width:5.5114;stroke-linejoin:round;stroke-miterlimit:10;}
	.st14{fill:none;stroke:#3CC3DB;stroke-width:11.7923;stroke-linejoin:round;stroke-miterlimit:10;}
	.st15{fill:none;stroke:#3CC3DB;stroke-width:11.5432;stroke-linejoin:round;stroke-miterlimit:10;}
	.st16{fill:none;stroke:#4294D1;stroke-width:5.511;stroke-linecap:round;stroke-linejoin:round;stroke-miterlimit:10;}
	.st17{fill:none;stroke:#3DA7D7;stroke-width:5.511;stroke-linecap:round;stroke-linejoin:round;stroke-miterlimit:10;}
	.st18{fill:none;stroke:#3CC3DB;stroke-width:5.511;stroke-linecap:round;stroke-linejoin:round;stroke-miterlimit:10;}
	.st19{fill:none;stroke:#4294D1;stroke-width:11.792;stroke-linecap:round;stroke-linejoin:round;stroke-miterlimit:10;}
	.st20{fill:none;stroke:#3DA7D7;stroke-width:11.792;stroke-linecap:round;stroke-linejoin:round;stroke-miterlimit:10;}
	.st21{fill:none;stroke:#3CC3DB;stroke-width:11.792;stroke-linecap:round;stroke-linejoin:round;stroke-miterlimit:10;}
	.st22{fill:none;stroke:#4294D1;stroke-width:11.543;stroke-linecap:round;stroke-linejoin:round;stroke-miterlimit:10;}
	.st23{fill:none;stroke:#3DA7D7;stroke-width:11.543;stroke-linecap:round;stroke-linejoin:round;stroke-miterlimit:10;}
	.st24{fill:none;stroke:#3CC3DB;stroke-width:11.543;stroke-linecap:round;stroke-linejoin:round;stroke-miterlimit:10;}
	.st25{fill:none;stroke:#4294D1;stroke-width:12.579;stroke-linecap:round;stroke-linejoin:round;stroke-miterlimit:10;}
	.st26{fill:none;stroke:#3DA7D7;stroke-width:12.579;stroke-linecap:round;stroke-linejoin:round;stroke-miterlimit:10;}
	.st27{fill:none;stroke:#3CC3DB;stroke-width:12.579;stroke-linecap:round;stroke-linejoin:round;stroke-miterlimit:10;}
	.st28{fill:none;stroke:#3CC3DB;stroke-width:9;stroke-linejoin:round;stroke-miterlimit:10;}
	.st29{fill:none;stroke:#3CC3DB;stroke-width:20.5369;stroke-linejoin:round;stroke-miterlimit:10;}
	.st30{fill:none;stroke:#3CC3DB;stroke-width:16;stroke-linejoin:round;stroke-miterlimit:10;}
	.st31{fill:none;stroke:#4294D1;stroke-width:9;stroke-linecap:round;stroke-linejoin:round;stroke-miterlimit:10;}
	.st32{fill:none;stroke:#3DA7D7;stroke-width:9;stroke-linecap:round;stroke-linejoin:round;stroke-miterlimit:10;}
	.st33{fill:none;stroke:#3CC3DB;stroke-width:9;stroke-linecap:round;stroke-linejoin:round;stroke-miterlimit:10;}
	.st34{fill:none;stroke:#4294D1;stroke-width:20.537;stroke-linecap:round;stroke-linejoin:round;stroke-miterlimit:10;}
	.st35{fill:none;stroke:#3DA7D7;stroke-width:20.537;stroke-linecap:round;stroke-linejoin:round;stroke-miterlimit:10;}
	.st36{fill:none;stroke:#3CC3DB;stroke-width:20.537;stroke-linecap:round;stroke-linejoin:round;stroke-miterlimit:10;}
	.st37{fill:none;stroke:#4294D1;stroke-width:16;stroke-linecap:round;stroke-linejoin:round;stroke-miterlimit:10;}
	.st38{fill:none;stroke:#3DA7D7;stroke-width:16;stroke-linecap:round;stroke-linejoin:round;stroke-miterlimit:10;}
	.st39{fill:none;stroke:#3CC3DB;stroke-width:16;stroke-linecap:round;stroke-linejoin:round;stroke-miterlimit:10;}
	.st40{fill:none;stroke:#4294D1;stroke-width:3;stroke-linecap:round;stroke-linejoin:round;stroke-miterlimit:10;}
	.st41{fill:none;stroke:#3DA7D7;stroke-width:3;stroke-linecap:round;stroke-linejoin:round;stroke-miterlimit:10;}
	.st42{fill:none;stroke:#3CC3DB;stroke-width:3;stroke-linecap:round;stroke-linejoin:round;stroke-miterlimit:10;}
	.st43{fill:none;stroke:#4294D1;stroke-width:6.913;stroke-linecap:round;stroke-linejoin:round;stroke-miterlimit:10;}
	.st44{fill:none;stroke:#3DA7D7;stroke-width:6.913;stroke-linecap:round;stroke-linejoin:round;stroke-miterlimit:10;}
	.st45{fill:none;stroke:#3CC3DB;stroke-width:6.913;stroke-linecap:round;stroke-linejoin:round;stroke-miterlimit:10;}
	.st46{fill:none;stroke:#4294D1;stroke-width:6.4809;stroke-linecap:round;stroke-linejoin:round;stroke-miterlimit:10;}
	.st47{fill:none;stroke:#3DA7D7;stroke-width:6.4809;stroke-linecap:round;stroke-linejoin:round;stroke-miterlimit:10;}
	.st48{fill:none;stroke:#3CC3DB;stroke-width:6.4809;stroke-linecap:round;stroke-linejoin:round;stroke-miterlimit:10;}
	.st49{fill:none;stroke:#4294D1;stroke-width:6.3442;stroke-linecap:round;stroke-linejoin:round;stroke-miterlimit:10;}
	.st50{fill:none;stroke:#3DA7D7;stroke-width:6.3442;stroke-linecap:round;stroke-linejoin:round;stroke-miterlimit:10;}
	.st51{fill:none;stroke:#3CC3DB;stroke-width:6.3442;stroke-linecap:round;stroke-linejoin:round;stroke-miterlimit:10;}
</style><g transform="translate(-149.02 -151.91)" fill="none" stroke-linecap="round" stroke-linejoin="round" stroke-miterlimit="10" stroke-width="20.537"><g stroke="#4294d1"><rect class="st34" transform="matrix(.5004 -.8658 .8658 .5004 -451.22 634.67)" x="254.55" y="638.53" width="139.54" height="139.54"/><polygon class="st34" points="489.37 803.68 559.19 682.87 419.65 682.81 349.83 803.62"/><polygon class="st34" points="298.82 612.99 229.11 492.11 159.28 612.92 229 733.8"/><polygon class="st34" points="229.17 352.58 159.35 473.39 159.28 612.92 229.11 492.11"/></g><g stroke="#4294d1"><rect class="st34" transform="matrix(.5004 -.8658 .8658 .5004 68.953 876.79)" x="724.42" y="308.88" width="139.54" height="139.54"/><polygon class="st34" points="629.14 283.27 559.32 404.08 698.85 404.14 768.67 283.33"/><polygon class="st34" points="819.68 473.97 889.4 594.84 959.22 474.03 889.5 353.16"/><polygon class="st34" points="889.34 734.38 959.16 613.56 959.22 474.03 889.4 594.84"/></g><g stroke="#3da7d7"><rect class="st35" transform="matrix(.8662 -.4996 .4996 .8662 -57.262 301.17)" x="464.08" y="187.76" width="139.54" height="139.54"/><polygon class="st35" points="368.73 352.78 438.44 473.66 508.26 352.84 438.55 231.97"/><polygon class="st35" points="629.15 283.11 768.68 283.17 698.97 162.3 559.43 162.24"/><polygon class="st35" points="438.44 473.66 559.32 403.94 629.14 283.13 508.26 352.84"/><polygon class="st35" points="889.5 352.99 819.78 232.12 698.97 162.3 768.68 283.17"/></g><g stroke="#3da7d7"><rect class="st35" transform="matrix(.8662 -.4996 .4996 .8662 -336.19 403.04)" x="514.88" y="759.65" width="139.54" height="139.54"/><polygon class="st35" points="749.78 734.17 680.06 613.3 610.24 734.11 679.96 854.98"/><polygon class="st35" points="489.36 803.84 349.82 803.78 419.54 924.65 559.07 924.72"/><polygon class="st35" points="680.06 613.3 559.19 683.01 489.37 803.82 610.24 734.11"/><polygon class="st35" points="229.01 733.96 298.72 854.83 419.54 924.65 349.82 803.78"/></g><g stroke="#3cc3db"><polygon class="st36" points="559.32 404.08 680.13 473.9 819.66 473.97 698.85 404.14"/><rect class="st36" x="749.82" y="594.68" width="139.54" height="139.54"/><polygon class="st36" points="819.66 473.82 680.13 473.76 749.84 594.64 889.38 594.7"/><polygon class="st36" points="749.79 734.19 679.97 855 819.5 855.06 889.33 734.25"/><polygon class="st36" points="680.13 473.76 680.06 613.3 749.78 734.17 749.84 594.64"/><polygon class="st36" points="559.09 924.72 698.63 924.78 819.5 855.06 679.97 855"/></g><g stroke="#3cc3db"><polygon class="st36" points="559.19 682.87 438.38 613.05 298.84 612.99 419.65 682.81"/><rect class="st36" x="229.15" y="352.73" width="139.54" height="139.54"/><polygon class="st36" points="298.84 613.13 438.38 613.19 368.66 492.32 229.13 492.26"/><polygon class="st36" points="368.72 352.76 438.54 231.95 299 231.89 229.18 352.7"/><polygon class="st36" points="438.38 613.19 438.44 473.66 368.73 352.78 368.66 492.32"/><polygon class="st36" points="559.41 162.24 419.88 162.18 299 231.89 438.54 231.95"/></g></g></svg>
